<?xml version="1.0" encoding="UTF-8" standalone="no"?>
<!DOCTYPE svg PUBLIC "-//W3C//DTD SVG 1.1//EN" "http://www.w3.org/Graphics/SVG/1.1/DTD/svg11.dtd">
<svg width="100%" height="100%" viewBox="0 0 29 29" version="1.1" xmlns="http://www.w3.org/2000/svg" xmlns:xlink="http://www.w3.org/1999/xlink" xml:space="preserve" xmlns:serif="http://www.serif.com/" style="fill-rule:evenodd;clip-rule:evenodd;stroke-linejoin:round;stroke-miterlimit:2;">
    <g transform="matrix(1.05263,0,0,1.05263,-0.763003,-0.763147)">
        <path d="M27.55,0.725L1.45,0.725C1.049,0.725 0.725,1.05 0.725,1.45L0.725,27.55C0.725,27.95 1.049,28.275 1.45,28.275L27.55,28.275C27.95,28.275 28.275,27.95 28.275,27.55L28.275,1.45C28.275,1.05 27.95,0.725 27.55,0.725Z" style="fill:white;fill-rule:nonzero;"/>
    </g>
    <g transform="matrix(1.05263,0,0,1.05263,-0.763003,-0.763147)">
        <path d="M20.764,14.648C20.764,14.186 20.723,13.741 20.645,13.314L14.5,13.314L14.5,15.838L18.012,15.838C17.86,16.653 17.401,17.344 16.71,17.807L16.71,19.444L18.818,19.444C20.052,18.308 20.764,16.635 20.764,14.648Z" style="fill:rgb(66,133,244);"/>
    </g>
    <g transform="matrix(1.05263,0,0,1.05263,-0.763003,-0.763147)">
        <path d="M14.5,21.025C16.262,21.025 17.739,20.441 18.818,19.444L16.709,17.807C16.125,18.199 15.378,18.43 14.5,18.43C12.801,18.43 11.362,17.282 10.849,15.74L8.669,15.74L8.669,17.43C9.743,19.563 11.949,21.025 14.5,21.025Z" style="fill:rgb(52,168,83);"/>
    </g>
    <g transform="matrix(1.05263,0,0,1.05263,-0.763003,-0.763147)">
        <path d="M10.849,15.74C10.718,15.348 10.644,14.93 10.644,14.5C10.644,14.07 10.718,13.652 10.849,13.26L10.849,11.57L8.669,11.57C8.227,12.451 7.975,13.447 7.975,14.5C7.975,15.553 8.227,16.549 8.669,17.43L10.849,15.74Z" style="fill:rgb(251,188,5);"/>
    </g>
    <g transform="matrix(1.05263,0,0,1.05263,-0.763003,-0.763147)">
        <path d="M14.5,10.57C15.458,10.57 16.318,10.899 16.994,11.546L18.866,9.674C17.736,8.622 16.259,7.975 14.5,7.975C11.949,7.975 9.743,9.437 8.669,11.57L10.849,13.26C11.362,11.718 12.801,10.57 14.5,10.57Z" style="fill:rgb(234,67,53);"/>
    </g>
</svg>
